<svg width="18" height="13" viewBox="0 0 18 13" fill="none" xmlns="http://www.w3.org/2000/svg">
<path fill-rule="evenodd" clip-rule="evenodd" d="M14.7858 0C14.9572 0 15.1215 0.0684551 15.2422 0.190156C15.3639 0.310863 15.4323 0.475175 15.4323 0.646585C15.4323 0.817994 15.3639 0.982306 15.2422 1.10301L3.67076 12.6744C3.55005 12.7961 3.38574 12.8646 3.21433 12.8646C3.04292 12.8646 2.87861 12.7961 2.7579 12.6744C2.6362 12.5537 2.56774 12.3894 2.56774 12.218C2.56774 12.0466 2.6362 11.8823 2.7579 11.7616L3.7029 10.823C2.03378 9.90819 0.739112 8.43605 0.0450425 6.66373C0.0146629 6.59039 -0.000641164 6.51168 4.25145e-05 6.4323V6.36801C-0.000641164 6.28863 0.0146629 6.20993 0.0450425 6.13658C1.28576 2.80016 4.8279 0.646585 9.00004 0.646585C10.4027 0.642793 11.793 0.909067 13.095 1.43087L14.3293 0.190156C14.45 0.0684551 14.6143 0 14.7858 0ZM9.00004 2.57516C6.8698 2.57516 5.1429 4.30206 5.1429 6.4323C5.14348 7.22794 5.393 8.00345 5.85647 8.65016L6.79504 7.71801C6.24605 6.71605 6.42401 5.47201 7.23188 4.66414C8.03976 3.85626 9.28379 3.67831 10.2858 4.2273L11.2308 3.28873C10.5805 2.82269 9.80007 2.57305 9.00004 2.57516ZM8.35719 8.91373L11.5072 5.76373C11.5578 5.98282 11.5794 6.20759 11.5715 6.4323C11.5715 7.85246 10.4202 9.00373 9.00004 9.00373C8.78281 9.001 8.56681 8.97076 8.35719 8.91373ZM18 6.47087V6.36801C18.0001 6.36461 18.0001 6.36121 18 6.35781C17.9994 6.2819 17.9841 6.20678 17.955 6.13658C17.3504 4.58882 16.2815 3.26616 14.895 2.35016L12.4779 4.7673C12.7292 5.28625 12.859 5.85568 12.8572 6.4323C12.8572 8.56254 11.1303 10.2894 9.00004 10.2894C8.42592 10.3013 7.85661 10.1826 7.33504 9.9423L5.5929 11.6844C6.71079 12.0419 7.87782 12.222 9.05147 12.218C13.2043 12.218 16.7143 10.0452 17.955 6.7023C17.9854 6.62896 18.0007 6.55025 18 6.47087Z" fill="#B0B0C3"/>
</svg>
