<svg width="16" height="16" viewBox="0 0 16 16" fill="none" xmlns="http://www.w3.org/2000/svg">
    <path fill-rule="evenodd" clip-rule="evenodd" d="M8.00008 3.3335C4.66675 3.3335 1.82008 5.40683 0.666748 8.3335C1.82008 11.2602 4.66675 13.3335 8.00008 13.3335C11.3334 13.3335 14.1801 11.2602 15.3334 8.3335C14.1801 5.40683 11.3334 3.3335 8.00008 3.3335ZM8.00008 11.6668C6.16008 11.6668 4.66675 10.1735 4.66675 8.3335C4.66675 6.4935 6.16008 5.00016 8.00008 5.00016C9.84008 5.00016 11.3334 6.4935 11.3334 8.3335C11.3334 10.1735 9.84008 11.6668 8.00008 11.6668ZM6.00008 8.3335C6.00008 7.22683 6.89341 6.3335 8.00008 6.3335C9.10675 6.3335 10.0001 7.22683 10.0001 8.3335C10.0001 9.44016 9.10675 10.3335 8.00008 10.3335C6.89341 10.3335 6.00008 9.44016 6.00008 8.3335Z" fill="#B0B0C3"/>
</svg>