<svg width="22" height="21" viewBox="0 0 22 21" fill="none" xmlns="http://www.w3.org/2000/svg">
<path fill-rule="evenodd" clip-rule="evenodd" d="M10.812 0.171875C10.8635 0.128906 10.929 0.107422 11 0.107422H10.9998C11.0708 0.107422 11.1438 0.128906 11.204 0.171875L21.812 9.45312C21.9151 9.53906 21.8969 9.625 21.7422 9.625H20.1953C20.0578 9.625 19.8526 9.55625 19.7495 9.45312L11.1878 2.23438C11.0847 2.14844 10.8989 2.14844 10.7958 2.23438L2.25034 9.45312C2.14722 9.55625 1.942 9.625 1.8045 9.625H0.257624C0.120124 9.625 0.084718 9.55625 0.187843 9.45312L10.812 0.171875ZM10.8121 2.92188C10.8637 2.87891 10.9378 2.85742 11.0108 2.85742H11.011C11.084 2.85742 11.1528 2.87891 11.2043 2.92188L15.1253 6.1875L19.0516 9.45845C19.169 9.56261 19.2503 9.74737 19.2503 9.88281V20.2812H12.7191V16.1562H9.28158V20.2812H2.78247L2.75016 9.88281V9.87748C2.75205 9.74256 2.83283 9.56141 2.94884 9.45845C2.94979 9.45768 2.95065 9.45673 2.95151 9.45579C2.95237 9.45484 2.95323 9.4539 2.95417 9.45312L3.78141 8.76562L10.8121 2.92188Z" fill="white"/>
</svg>
